<svg width="200" height="200" xmlns="http://www.w3.org/2000/svg">
 <!-- Generator: Sketch 47.1 (45422) - http://www.bohemiancoding.com/sketch -->
 <title>Group 28 Copy 5</title>
 <desc>Created with Sketch.</desc>
 <defs>
  <linearGradient id="linearGradient-1" y2="37.8635764%" x2="108.19718%" y1="0%" x1="62.1023273%">
   <stop offset="0%" stop-color="#4285EB"/>
   <stop offset="100%" stop-color="#2EC7FF"/>
  </linearGradient>
  <linearGradient id="linearGradient-2" y2="108.456714%" x2="54.0428975%" y1="0%" x1="69.644116%">
   <stop offset="0%" stop-color="#29CDFF"/>
   <stop offset="37.8600687%" stop-color="#148EFF"/>
   <stop offset="100%" stop-color="#0A60FF"/>
  </linearGradient>
  <linearGradient id="linearGradient-3" y2="117.391248%" x2="16.7228981%" y1="-12.9743587%" x1="69.6908165%">
   <stop offset="0%" stop-color="#FA816E"/>
   <stop offset="41.472606%" stop-color="#F74A5C"/>
   <stop offset="100%" stop-color="#F51D2C"/>
  </linearGradient>
  <linearGradient id="linearGradient-4" y2="114.942679%" x2="30.4400914%" y1="-35.6905737%" x1="68.1279872%">
   <stop offset="0%" stop-color="#FA8E7D"/>
   <stop offset="51.2635191%" stop-color="#F74A5C"/>
   <stop offset="100%" stop-color="#F51D2C"/>
  </linearGradient>
 </defs>
 <g>
  <title>background</title>
  <rect fill="transparent" id="canvas_background" height="202" width="202" y="-1" x="-1"/>
 </g>
 <g>
  <title>Layer 1</title>
  <g fill-rule="evenodd" fill="none" id="Page-1">
   <g stroke="null" id="logo">
    <g stroke="null" id="Group-28-Copy-5">
     <g stroke="null" id="Group-27-Copy-3">
      <g stroke="null" fill-rule="nonzero" id="Group-25">
       <g stroke="null" id="2">
        <path stroke="null" fill="url(#linearGradient-1)" id="Shape" d="m89.588328,4.17653l-87.40812,87.33624c-4.69921,4.69534 -4.69921,12.27911 0,16.97446l87.40812,87.33624c4.6992,4.69534 12.28921,4.69534 16.98842,0l36.64898,-36.61884c4.20848,-4.20502 4.20848,-11.02271 0,-15.22773c-4.20848,-4.20502 -11.03178,-4.20502 -15.24026,0l-27.7833,27.76045c-1.16963,1.16866 -2.94477,1.16866 -4.11439,0l-69.80163,-69.74423c-1.16963,-1.16866 -1.16963,-2.94234 0,-4.11101l69.80163,-69.74423c1.16962,-1.16866 2.94476,-1.16866 4.11439,0l27.7833,27.76045c4.20848,4.20502 11.03178,4.20502 15.24026,0c4.20848,-4.20502 4.20848,-11.02271 0,-15.22773l-36.64494,-36.61485c-4.7185,-4.59374 -12.31129,-4.55655 -16.99246,0.12078z"/>
        <path stroke="null" fill="url(#linearGradient-2)" id="Shape" d="m89.588328,4.17653l-87.40812,87.33624c-4.69921,4.69534 -4.69921,12.27911 0,16.97446l87.40812,87.33624c4.6992,4.69534 12.28921,4.69534 16.98842,0l36.64898,-36.61884c4.20848,-4.20502 4.20848,-11.02271 0,-15.22773c-4.20848,-4.20502 -11.03178,-4.20502 -15.24026,0l-27.7833,27.76045c-1.16963,1.16866 -2.94477,1.16866 -4.11439,0l-69.80163,-69.74423c-1.16963,-1.16866 -1.16963,-2.94234 0,-4.11101l69.80163,-69.74423c2.91232,-2.5107 7.6641,-7.59606 14.64211,-8.78543c5.18593,-0.88392 10.85557,1.06157 17.0089,5.83649c-4.11389,-4.11051 -11.16655,-11.15491 -21.158,-21.13319c-4.7185,-4.59374 -12.31129,-4.55655 -16.99246,0.12078z"/>
       </g>
       <path stroke="null" fill="url(#linearGradient-3)" id="Shape" d="m151.685868,135.85458c4.20848,4.20502 11.03178,4.20502 15.24026,0l27.03409,-27.01185c4.6992,-4.69535 4.6992,-12.27912 0.00055,-16.97391l-27.26975,-27.1507c-4.21845,-4.20003 -11.04391,-4.19398 -15.25489,0.01353c-4.20848,4.20502 -4.20848,11.02271 0,15.22773l18.41815,18.403c1.16962,1.16866 1.16962,2.94234 0,4.11101l-18.16841,18.15346c-4.20848,4.20502 -4.20848,11.02271 0,15.22773z"/>
      </g>
      <ellipse stroke="null" ry="23.580786" rx="23.600193" cy="100.436681" cx="98.519577" fill="url(#linearGradient-4)" id="Combined-Shape"/>
     </g>
    </g>
   </g>
  </g>
  <rect opacity="0" id="svg_44" height="53.999815" width="68.499765" y="74.054777" x="63.250134" fill-opacity="null" stroke-opacity="0" stroke-width="null" stroke="#b55555" fill="#1388ff"/>
  <ellipse ry="25.249915" rx="25.499914" id="svg_46" cy="99.471355" cx="98.750008" stroke-width="null" fill="transparent"/>
  <ellipse stroke="null" ry="19.166707" rx="20.666715" id="svg_49" cy="104.94276" cx="99.833269" stroke-width="null" fill="url(#linearGradient-3)"/>
  <path stroke="null" transform="rotate(3.952288866043091 143.728713989258,59.96502304077141) " id="svg_48" d="m191.347577,8.753836l-16.933404,-8.545685c-4.272352,-2.153988 -9.901917,-1.117274 -12.593941,2.31384l-6.674412,8.529739l32.394319,16.336533l6.679676,-8.52578c2.681807,-3.435199 1.401879,-7.959459 -2.872238,-10.108647l0,0zm-93.847559,75.990965l32.396084,16.336365l52.800247,-67.489265l-32.411506,-16.34063l-52.78483,67.493526l0.000005,0.000004zm-4.948496,20.75596l-0.715513,15.344467l16.907428,-7.180511l15.711804,-6.660937l-31.25354,-15.770181l-0.650173,14.267167l0,0l-0.000005,-0.000004z" stroke-width="null" fill="url(#linearGradient-2)"/>
 </g>
</svg>